<svg width="26" height="26" viewBox="0 0 26 26" fill="none" xmlns="http://www.w3.org/2000/svg">
<path d="M19.541 25.8595H6.90909C3.36079 25.8595 0.451172 22.9499 0.451172 19.4016V6.69864C0.451172 3.15033 3.36079 0.240723 6.90909 0.240723H19.541C23.0893 0.240723 25.999 3.15033 25.999 6.69864V19.3306C26.0699 22.9499 23.1603 25.8595 19.541 25.8595Z" fill="#FF0000"/>
<path d="M13.8635 11.8791C14.2184 11.4533 14.7151 11.1695 15.2119 11.0985C16.2054 10.9566 17.1989 10.9566 17.9086 11.8791C18.3344 12.3759 18.5473 13.0146 18.5473 13.7242C18.6183 15.1436 18.6183 16.5629 18.6183 17.9822C18.6183 18.337 18.4763 18.5499 18.0505 18.5499C17.6247 18.5499 17.128 18.5499 16.7022 18.5499C16.2764 18.5499 16.1344 18.408 16.1344 17.9822C16.1344 16.8467 16.1344 15.7113 16.1344 14.5758C16.1344 14.292 16.0635 14.0791 15.9925 13.7952C15.8506 13.3694 15.5667 13.1565 15.1409 13.1565C14.7151 13.1565 14.2893 13.2275 14.1474 13.6533C14.0055 13.9371 13.8635 14.292 13.8635 14.6468C13.7926 15.7113 13.8635 16.8467 13.8635 17.9112C13.8635 18.408 13.7216 18.5499 13.2248 18.5499C12.799 18.5499 12.3732 18.5499 12.0184 18.5499C11.5926 18.5499 11.4507 18.408 11.4507 17.9822C11.4507 15.9242 11.4507 13.7952 11.4507 11.7372C11.4507 11.3114 11.5926 11.1695 12.0184 11.1695C12.4442 11.1695 12.799 11.1695 13.2248 11.1695C13.6506 11.1695 13.7926 11.3114 13.8635 11.8082C13.8635 11.7372 13.8635 11.8082 13.8635 11.8791Z" fill="white"/>
<path d="M10.5284 14.7887C10.5284 15.8532 10.5284 16.8467 10.5284 17.9112C10.5284 18.337 10.3865 18.4789 9.96068 18.4789C9.53488 18.4789 9.10908 18.4789 8.75425 18.4789C8.32846 18.4789 8.18652 18.337 8.18652 17.9112C8.18652 15.8532 8.18652 13.7952 8.18652 11.7372C8.18652 11.3114 8.32846 11.1694 8.75425 11.1694C9.18005 11.1694 9.53488 11.1694 9.96068 11.1694C10.3865 11.1694 10.5994 11.3114 10.5994 11.8081C10.5284 12.7307 10.5284 13.7952 10.5284 14.7887Z" fill="white"/>
<path d="M7.83154 9.11155C7.83154 8.25995 8.54121 7.55029 9.32184 7.55029C10.1734 7.55029 10.8121 8.25995 10.8121 9.04058C10.8121 9.89217 10.1025 10.6018 9.25086 10.6018C8.47024 10.6018 7.83154 9.96314 7.83154 9.11155Z" fill="white"/>
</svg>
