<svg width="27" height="26" viewBox="0 0 27 26" fill="none" xmlns="http://www.w3.org/2000/svg">
<path d="M19.5747 25.8595H6.94278C3.39447 25.8595 0.484863 22.9499 0.484863 19.4016V6.69864C0.484863 3.15033 3.39447 0.240723 6.94278 0.240723H19.5747C23.123 0.240723 26.0327 3.15033 26.0327 6.69864V19.3306C26.1036 22.9499 23.194 25.8595 19.5747 25.8595Z" fill="#FF0000"/>
<path d="M17.2329 8.33057C16.7362 8.33057 16.3813 8.6854 16.3813 9.18216C16.3813 9.67892 16.7362 10.0338 17.2329 10.0338C17.7297 10.0338 18.0845 9.67892 18.0845 9.18216C18.0845 8.6854 17.6587 8.33057 17.2329 8.33057Z" fill="white"/>
<path d="M13.3297 9.39502C11.3427 9.39502 9.71045 11.0272 9.71045 13.0143C9.71045 15.0013 11.3427 16.6336 13.3297 16.6336C15.3168 16.6336 16.949 15.0013 16.949 13.0143C17.02 11.0272 15.3877 9.39502 13.3297 9.39502ZM13.3297 15.4271C12.0523 15.4271 10.9878 14.3626 10.9878 13.0853C10.9878 11.8079 12.0523 10.7434 13.3297 10.7434C14.6071 10.7434 15.6716 11.8079 15.6716 13.0853C15.6716 14.3626 14.6071 15.4271 13.3297 15.4271Z" fill="white"/>
<path d="M16.2395 20.4657H10.3493C7.86547 20.4657 5.87842 18.4787 5.87842 15.9948V10.1047C5.87842 7.62084 7.86547 5.63379 10.3493 5.63379H16.2395C18.7233 5.63379 20.7103 7.62084 20.7103 10.1047V15.9948C20.7103 18.4787 18.7233 20.4657 16.2395 20.4657ZM10.3493 7.05311C8.6461 7.05311 7.29774 8.40147 7.29774 10.1047V15.9948C7.29774 17.698 8.6461 19.0464 10.3493 19.0464H16.2395C17.9427 19.0464 19.291 17.698 19.291 15.9948V10.1047C19.291 8.40147 17.9427 7.05311 16.2395 7.05311H10.3493V7.05311Z" fill="white"/>
</svg>
